<svg xmlns="http://www.w3.org/2000/svg" viewBox="0 0 32 32" width="32" height="32">
  <!-- Background circle with gradient -->
  <defs>
    <linearGradient id="bg-gradient" x1="0%" y1="0%" x2="100%" y2="100%">
      <stop offset="0%" style="stop-color:#667eea;stop-opacity:1" />
      <stop offset="100%" style="stop-color:#764ba2;stop-opacity:1" />
    </linearGradient>
  </defs>

  <!-- Background -->
  <circle cx="16" cy="16" r="15" fill="url(#bg-gradient)" stroke="#fff" stroke-width="2"/>

  <!-- Wizard hat -->
  <path d="M16 6 L12 14 L20 14 Z" fill="#fff" opacity="0.9"/>
  <circle cx="16" cy="6" r="1.5" fill="#FFD700"/>

  <!-- Settings gear (smaller) -->
  <g transform="translate(22, 22) scale(0.6)">
    <circle cx="0" cy="0" r="3" fill="#fff" opacity="0.8"/>
    <path d="M-1.5,-3 L1.5,-3 L1.5,-2 L-1.5,-2 Z" fill="#fff" opacity="0.8"/>
    <path d="M-1.5,2 L1.5,2 L1.5,3 L-1.5,3 Z" fill="#fff" opacity="0.8"/>
    <path d="M-3,-1.5 L-2,-1.5 L-2,1.5 L-3,1.5 Z" fill="#fff" opacity="0.8"/>
    <path d="M2,-1.5 L3,-1.5 L3,1.5 L2,1.5 Z" fill="#fff" opacity="0.8"/>
  </g>

  <!-- Checkmark -->
  <path d="M8 16 L12 20 L24 8" stroke="#fff" stroke-width="2" fill="none" stroke-linecap="round" stroke-linejoin="round" opacity="0.9"/>
</svg>
